<svg width="768" height="450" viewBox="144 124 768 450" fill="none" xmlns="http://www.w3.org/2000/svg">
  <title>Voiceprint</title>
  <g transform="translate(112 84)" stroke="#1ec99a" stroke-width="26" stroke-linecap="round" stroke-linejoin="round">
    <path d="M182 40H650C734 40 800 106 800 190V286C800 370 734 436 650 436H322L204 490V436H182C98 436 32 370 32 286V190C32 106 98 40 182 40Z"/>
    <path d="M118 248
             H208
             C218 248 222 238 226 222
             L238 176
             C242 160 254 160 258 176
             L286 294
             C290 310 302 310 306 294
             L344 126
             C348 110 360 110 364 126
             L418 358
             C422 374 434 374 438 358
             L478 188
             C482 172 494 172 498 188
             L526 294
             C530 310 542 310 546 294
             L566 222
             C570 206 582 206 586 222
             L598 248
             H684"/>
  </g>
</svg>
